<svg width="24" height="24" viewBox="0 0 24 24" fill="none" xmlns="http://www.w3.org/2000/svg">
<path fill-rule="evenodd" clip-rule="evenodd" d="M5.66863 4.22989C7.34183 2.70115 9.6033 2 12 2C14.3967 2 16.6582 2.70115 18.3314 4.22989C20.0196 5.77233 21 8.05825 21 11C21 14.1007 19.1354 16.8425 17.239 18.739C16.2756 19.7023 15.2616 20.4912 14.3812 21.0456C13.9416 21.3225 13.5215 21.5496 13.1463 21.7111C12.8024 21.8591 12.3892 22 12 22C11.6108 22 11.1976 21.8591 10.8537 21.7111C10.4785 21.5496 10.0584 21.3225 9.61876 21.0456C8.73837 20.4912 7.7244 19.7023 6.76104 18.739C4.86459 16.8425 3 14.1007 3 11C3 8.05825 3.98042 5.77233 5.66863 4.22989ZM12 8C10.3431 8 9 9.34315 9 11C9 12.6569 10.3431 14 12 14C13.6569 14 15 12.6569 15 11C15 9.34315 13.6569 8 12 8Z" fill="#181C2F"/>
</svg>
